<?xml version="1.0" encoding="UTF-8"?>
<svg width="48px" height="33px" viewBox="0 0 48 33" version="1.1" xmlns="http://www.w3.org/2000/svg" xmlns:xlink="http://www.w3.org/1999/xlink">
    <!-- Generator: Sketch 57.1 (83088) - https://sketch.com -->
    <title>American Express </title>
    <desc>Created with Sketch.</desc>
    <g id="App-/-Desktop" stroke="none" stroke-width="1" fill="none" fill-rule="evenodd">
        <g id="Tokens-/-Manage-/-Add-Credit-Card-Info" transform="translate(-375.000000, -496.000000)">
            <g id="Group-2" transform="translate(247.000000, 199.000000)">
                <g id="Card-Icons" transform="translate(1.000000, 297.000000)">
                    <g id="American-Express-" transform="translate(127.000000, 0.000000)">
                        <path d="M0,3.00135749 C0,1.34375352 1.33389258,0 3.00261497,0 L44.997385,0 C46.6556835,0 48,1.33451092 48,3.00135749 L48,29.9986425 C48,31.6562465 46.6661074,33 44.997385,33 L3.00261497,33 C1.34431651,33 0,31.6654891 0,29.9986425 L0,3.00135749 Z" id="Rectangle-Copy-4" fill="#016FD0"></path>
                        <g id="American_Express_logo_(2018)" transform="translate(0.000000, 8.000000)">
                            <path d="M9.32407904,16.8514368 L9.32407904,9.58318728 L17.267565,9.58318728 L18.1198151,10.6595476 L19.0002467,9.58318728 L47.8331401,9.58318728 L47.8331401,16.3501805 C47.8331401,16.3501805 47.079109,16.844169 46.2070371,16.8514368 L30.241669,16.8514368 L29.2807904,15.7057027 L29.2807904,16.8514368 L26.1320647,16.8514368 L26.1320647,14.8956339 C26.1320647,14.8956339 25.701944,15.168641 24.7720522,15.168641 L23.7003028,15.168641 L23.7003028,16.8514368 L18.9328661,16.8514368 L18.0818338,15.7519921 L17.2177346,16.8514368 L9.32407904,16.8514368 Z" id="path3082" fill="#FFFFFF"></path>
                            <path d="M0.0479041916,4.1051496 L1.83919162,0.0592795523 L4.93703617,0.0592795523 L5.95361246,2.32561207 L5.95361246,0.0592795523 L9.8045188,0.0592795523 L10.4096872,1.6973175 L10.9963775,0.0592795523 L28.2829547,0.0592795523 L28.2829547,0.882774775 C28.2829547,0.882774775 29.1916949,0.0592795523 30.6851516,0.0592795523 L36.2940134,0.0782705433 L37.2930405,2.3149424 L37.2930405,0.0592795523 L40.5156795,0.0592795523 L41.4026448,1.34406743 L41.4026448,0.0592795523 L44.6548493,0.0592795523 L44.6548493,7.32752443 L41.4026448,7.32752443 L40.5526366,6.03857357 L40.5526366,7.32752443 L35.8178654,7.32752443 L35.3417174,6.18179034 L34.0688513,6.18179034 L33.6004532,7.32752443 L30.3894965,7.32752443 C29.104424,7.32752443 28.2829547,6.52084357 28.2829547,6.52084357 L28.2829547,7.32752443 L23.4416048,7.32752443 L22.4807257,6.18179034 L22.4807257,7.32752443 L4.47810922,7.32752443 L4.00228934,6.18179034 L2.73348216,6.18179034 L2.26102515,7.32752443 L0.0479041916,7.32752443 L0.0479041916,4.1051496 Z" id="path3080" fill="#FFFFFF"></path>
                            <path d="M2.47319904,0.955299754 L0.0571434251,6.39753208 L1.63012029,6.39753208 L2.07591257,5.30774993 L4.66751329,5.30774993 L5.11099593,6.39753208 L6.71861988,6.39753208 L4.30487377,0.955299754 L2.47319904,0.955299754 Z M3.36709317,2.22187169 L4.15704671,4.12621048 L2.57483018,4.12621048 L3.36709317,2.22187169 L3.36709317,2.22187169 Z" id="path3046" fill="#016FD0" fill-rule="nonzero"></path>
                            <polygon id="path3048" fill="#016FD0" points="6.88492551 6.3966178 6.88492551 0.954380835 9.12021317 0.962423696 10.4203325 4.47123205 11.6893193 0.954380835 13.9067315 0.954380835 13.9067315 6.3966178 12.5023703 6.3966178 12.5023703 2.38654846 11.0137178 6.3966178 9.78209006 6.3966178 8.28928671 2.38654846 8.28928671 6.3966178"></polygon>
                            <polygon id="path3050" fill="#016FD0" points="14.8676101 6.3966178 14.8676101 0.954380835 19.4502625 0.954380835 19.4502625 2.17172563 16.286754 2.17172563 16.286754 3.10263227 19.3763487 3.10263227 19.3763487 4.24836637 16.286754 4.24836637 16.286754 5.21507835 19.4502625 5.21507835 19.4502625 6.3966178"></polygon>
                            <path d="M20.2633135,0.955299754 L20.2633135,6.39753208 L21.6676747,6.39753208 L21.6676747,4.46410811 L22.2589844,4.46410811 L23.9428321,6.39753208 L25.659017,6.39753208 L23.8111732,4.39250205 C24.5695396,4.33050287 25.3518127,3.699911 25.3518127,2.72089571 C25.3518127,1.5756582 24.4239914,0.955299754 23.388479,0.955299754 L20.2633135,0.955299754 L20.2633135,0.955299754 Z M21.6676747,2.17263991 L23.2729887,2.17263991 C23.6580814,2.17263991 23.9382127,2.46447557 23.9382127,2.74550696 C23.9382127,3.10706443 23.5752556,3.31837401 23.2937772,3.31837401 L21.6676747,3.31837401 L21.6676747,2.17263991 L21.6676747,2.17263991 Z" id="path3052" fill="#016FD0" fill-rule="nonzero"></path>
                            <polygon id="path3054" fill="#016FD0" points="27.3590333 6.3966178 25.9251066 6.3966178 25.9251066 0.954380835 27.3590333 0.954380835"></polygon>
                            <path d="M30.7590654,6.3966178 L30.4495516,6.3966178 C28.9519842,6.3966178 28.0427353,5.25357548 28.0427353,3.69787824 C28.0427353,2.10374884 28.9418041,0.954380835 30.8329792,0.954380835 L32.3851679,0.954380835 L32.3851679,2.2433317 L30.7762304,2.2433317 C30.0085178,2.2433317 29.4655746,2.82376822 29.4655746,3.71130467 C29.4655746,4.76525826 30.0864067,5.20791728 30.9808067,5.20791728 L31.3503751,5.20791728 L30.7590654,6.3966178 Z" id="path3056" fill="#016FD0"></path>
                            <path d="M33.8149365,0.955299754 L31.3988814,6.39753208 L32.9718582,6.39753208 L33.4176503,5.30774993 L36.0092513,5.30774993 L36.4527334,6.39753208 L38.0603574,6.39753208 L35.6466117,0.955299754 L33.8149365,0.955299754 Z M34.7088311,2.22187169 L35.4987842,4.12621048 L33.9165681,4.12621048 L34.7088311,2.22187169 Z" id="path3058" fill="#016FD0" fill-rule="nonzero"></path>
                            <polygon id="path3060" fill="#016FD0" points="38.2243535 6.3966178 38.2243535 0.954380835 40.0098323 0.954380835 42.2896096 4.37368277 42.2896096 0.954380835 43.6939708 0.954380835 43.6939708 6.3966178 41.9662371 6.3966178 39.6287147 2.88780945 39.6287147 6.3966178"></polygon>
                            <polygon id="path3062" fill="#016FD0" points="10.2849581 15.9205302 10.2849581 10.4782932 14.8676101 10.4782932 14.8676101 11.695638 11.704102 11.695638 11.704102 12.6265446 14.7936963 12.6265446 14.7936963 13.7722787 11.704102 13.7722787 11.704102 14.7389907 14.8676101 14.7389907 14.8676101 15.9205302"></polygon>
                            <polygon id="path3064" fill="#016FD0" points="32.7399535 15.9205302 32.7399535 10.4782932 37.322606 10.4782932 37.322606 11.695638 34.1590975 11.695638 34.1590975 12.6265446 37.2339095 12.6265446 37.2339095 13.7722787 34.1590975 13.7722787 34.1590975 14.7389907 37.322606 14.7389907 37.322606 15.9205302"></polygon>
                            <polygon id="path3066" fill="#016FD0" points="15.0454649 15.9205302 17.2767363 13.2329754 14.9923396 10.4782932 16.7616498 10.4782932 18.1221246 12.1812263 19.4872192 10.4782932 21.1872354 10.4782932 18.9328661 13.1994117 21.1682448 15.9205302 19.3992144 15.9205302 18.0782386 14.2444406 16.7893677 15.9205302"></polygon>
                            <path d="M21.335063,10.4792121 L21.335063,15.9214444 L22.7763808,15.9214444 L22.7763808,14.2028433 L24.2546558,14.2028433 C25.5054855,14.2028433 26.4535895,13.5599528 26.4535895,12.3096986 C26.4535895,11.2739934 25.7099866,10.4792121 24.4371305,10.4792121 L21.335063,10.4792121 L21.335063,10.4792121 Z M22.7763808,11.7099787 L24.333189,11.7099787 C24.7372829,11.7099787 25.0261303,11.9499233 25.0261303,12.3365515 C25.0261303,12.6997658 24.7387411,12.9631242 24.3285696,12.9631242 L22.7763808,12.9631242 L22.7763808,11.7099787 Z" id="path3068" fill="#016FD0" fill-rule="nonzero"></path>
                            <path d="M27.0633782,10.4782932 L27.0633782,15.9205302 L28.4677394,15.9205302 L28.4677394,13.9871016 L29.0590491,13.9871016 L30.7428968,15.9205302 L32.4590817,15.9205302 L30.6112378,13.9154955 C31.3696038,13.853487 32.1518774,13.2229044 32.1518774,12.2438845 C32.1518774,11.0986517 31.224056,10.4782932 30.1885437,10.4782932 L27.0633782,10.4782932 L27.0633782,10.4782932 Z M28.4677394,11.695638 L30.0730534,11.695638 C30.4581461,11.695638 30.7382769,11.987469 30.7382769,12.2685004 C30.7382769,12.6300625 30.3753198,12.8413675 30.0938414,12.8413675 L28.4677394,12.8413675 L28.4677394,11.695638 L28.4677394,11.695638 Z" id="path3072" fill="#016FD0" fill-rule="nonzero"></path>
                            <path d="M37.9730467,15.9205302 L37.9730467,14.7389907 L40.7836172,14.7389907 C41.1994807,14.7389907 41.3795468,14.5212719 41.3795468,14.2824876 C41.3795468,14.0537046 41.2000484,13.8224062 40.7836172,13.8224062 L39.5135526,13.8224062 C38.4095665,13.8224062 37.7947301,13.1707674 37.7947301,12.1924204 C37.7947301,11.3198048 38.357771,10.4782932 39.9982836,10.4782932 L42.7330922,10.4782932 L42.141782,11.7027944 L39.7765423,11.7027944 C39.3244125,11.7027944 39.1852321,11.9326448 39.1852321,12.1521411 C39.1852321,12.3777497 39.3572254,12.6265446 39.7026285,12.6265446 L41.0330759,12.6265446 C42.2637485,12.6265446 42.7977667,13.3028504 42.7977667,14.1885026 C42.7977667,15.140665 42.2026951,15.9205302 40.96608,15.9205302 L37.9730467,15.9205302 Z" id="path3074" fill="#016FD0"></path>
                            <path d="M43.1273763,15.9205302 L43.1273763,14.7389907 L45.9379449,14.7389907 C46.3538108,14.7389907 46.5338778,14.5212719 46.5338778,14.2824876 C46.5338778,14.0537046 46.354376,13.8224062 45.9379449,13.8224062 L44.6678822,13.8224062 C43.563896,13.8224062 42.9490592,13.1707674 42.9490592,12.1924204 C42.9490592,11.3198048 43.5121001,10.4782932 45.1526127,10.4782932 L47.8874204,10.4782932 L47.2961102,11.7027944 L44.9308714,11.7027944 C44.478742,11.7027944 44.3395617,11.9326448 44.3395617,12.1521411 C44.3395617,12.3777497 44.5115545,12.6265446 44.8569576,12.6265446 L46.187406,12.6265446 C47.418079,12.6265446 47.9520958,13.3028504 47.9520958,14.1885026 C47.9520958,15.140665 47.3570251,15.9205302 46.1204072,15.9205302 L43.1273763,15.9205302 Z" id="path3076" fill="#016FD0"></path>
                        </g>
                    </g>
                </g>
            </g>
        </g>
    </g>
</svg>