<?xml version="1.0" encoding="UTF-8"?>
<svg width="47px" height="33px" viewBox="0 0 47 33" version="1.1" xmlns="http://www.w3.org/2000/svg" xmlns:xlink="http://www.w3.org/1999/xlink">
    <!-- Generator: Sketch 57.1 (83088) - https://sketch.com -->
    <title>Mastercard </title>
    <desc>Created with Sketch.</desc>
    <g id="App-/-Desktop" stroke="none" stroke-width="1" fill="none" fill-rule="evenodd">
        <g id="Tokens-/-Manage-/-Add-Credit-Card-Info" transform="translate(-248.000000, -496.000000)">
            <g id="Group-2" transform="translate(247.000000, 199.000000)">
                <g id="Card-Icons" transform="translate(1.000000, 297.000000)">
                    <g id="Mastercard-">
                        <path d="M0.5,3.00135749 L0.5,29.9986425 C0.5,31.3862053 1.61328935,32.5 2.99361448,32.5 L44.0063855,32.5 C45.3813278,32.5 46.5,31.3792378 46.5,29.9986425 L46.5,3.00135749 C46.5,1.61379465 45.3867107,0.5 44.0063855,0.5 L2.99361448,0.5 C1.61867221,0.5 0.5,1.62076222 0.5,3.00135749 Z" id="Rectangle-Copy-4" stroke="#E6E7E8" fill="#FFFFFF"></path>
                        <g id="mc_symbol" transform="translate(10.000000, 7.000000)">
                            <g id="Group" opacity="0" fill="#FFFFFF">
                                <rect id="Rectangle" x="0" y="0" width="27.8706061" height="18.9781609"></rect>
                            </g>
                            <rect id="Rectangle" fill="#FF5F00" x="10.260303" y="3.30643678" width="7.35212121" height="12.3631034"></rect>
                            <path d="M11.0175758,9.48908046 C11.0157297,7.07695434 12.0912503,4.79791029 13.9342424,3.30862069 C10.8032889,0.775298665 6.30711397,1.14429893 3.60550864,4.156298 C0.903903312,7.16829708 0.903903312,11.8120477 3.60550864,14.8240468 C6.30711397,17.8360459 10.8032889,18.2050462 13.9342424,15.6717241 C12.0906638,14.1819616 11.0150775,11.901973 11.0175758,9.48908046 Z" id="Path" fill="#EB001B"></path>
                            <path d="M25.6442424,14.904117 L25.6442424,14.2010867 L25.8109091,14.2010867 L25.8109091,14.0556322 L25.4142424,14.0556322 L25.4142424,14.2010867 L25.5709091,14.2010867 L25.5709091,14.904117 L25.6442424,14.904117 Z M26.4142424,14.904117 L26.4142424,14.0556322 L26.2942424,14.0556322 L26.1542424,14.6616928 L26.0142424,14.0556322 L25.8942424,14.0556322 L25.8942424,14.904117 L25.9809091,14.904117 L25.9809091,14.2616928 L26.1109091,14.8132079 L26.2009091,14.8132079 L26.3309091,14.2616928 L26.3309091,14.904117 L26.4142424,14.904117 Z" id="Shape" fill="#F79E1B" fill-rule="nonzero"></path>
                            <path d="M26.290303,9.48908046 C26.290303,12.499244 24.6207863,15.2451305 21.9909784,16.5605515 C19.3611705,17.8759725 16.2327009,17.5299885 13.9342424,15.6695402 C15.7764304,14.1789863 16.8520319,11.9002452 16.8520319,9.48798851 C16.8520319,7.0757318 15.7764304,4.79699075 13.9342424,3.30643678 C16.2327009,1.44598849 19.3611705,1.10000447 21.9909784,2.41542547 C24.6207863,3.73084648 26.290303,6.47673302 26.290303,9.48689655 L26.290303,9.48908046 Z" id="Path" fill="#F79E1B"></path>
                        </g>
                    </g>
                </g>
            </g>
        </g>
    </g>
</svg>