<?xml version="1.0" encoding="UTF-8"?>
<svg width="47px" height="33px" viewBox="0 0 47 33" version="1.1" xmlns="http://www.w3.org/2000/svg" xmlns:xlink="http://www.w3.org/1999/xlink">
    <!-- Generator: Sketch 57.1 (83088) - https://sketch.com -->
    <title>Visa </title>
    <desc>Created with Sketch.</desc>
    <g id="App-/-Desktop" stroke="none" stroke-width="1" fill="none" fill-rule="evenodd">
        <g id="Tokens-/-Manage-/-Add-Credit-Card-Info" transform="translate(-311.000000, -496.000000)">
            <g id="Group-2" transform="translate(247.000000, 199.000000)">
                <g id="Card-Icons" transform="translate(1.000000, 297.000000)">
                    <g id="Visa-" transform="translate(63.000000, 0.000000)">
                        <path d="M0.5,3.00135749 L0.5,29.9986425 C0.5,31.3862053 1.61328935,32.5 2.99361448,32.5 L44.0063855,32.5 C45.3813278,32.5 46.5,31.3792378 46.5,29.9986425 L46.5,3.00135749 C46.5,1.61379465 45.3867107,0.5 44.0063855,0.5 L2.99361448,0.5 C1.61867221,0.5 0.5,1.62076222 0.5,3.00135749 Z" id="Rectangle-Copy-4" stroke="#E6E7E8" fill="#FFFFFF"></path>
                        <g id="Visa_Inc._logo" transform="translate(8.000000, 12.000000)" fill="#0742A6">
                            <polygon id="polygon9" points="13.402106 9.81713702 10.9082303 9.81713702 12.4680788 0.294197498 14.9618181 0.294197498"></polygon>
                            <path d="M22.4426269,0.527006197 C21.950725,0.334323 21.170528,0.121577051 20.2058166,0.121577051 C17.7430343,0.121577051 16.0087631,1.41825014 15.9981259,3.27210218 C15.9776698,4.63987011 17.2398134,5.39956166 18.1837958,5.85561895 C19.1486436,6.3216403 19.4766236,6.62581315 19.4766236,7.04120634 C19.4668046,7.67917489 18.6969721,7.97324904 17.9789617,7.97324904 C16.9832934,7.97324904 16.4497974,7.82163389 15.6390526,7.46669824 L15.3106634,7.31454449 L14.9616817,9.45223732 C15.5465908,9.71534212 16.6242201,9.94882407 17.7430343,9.95905742 C20.3597831,9.95905742 22.0633701,8.68244708 22.0835535,6.70687205 C22.0935088,5.62281026 21.4270479,4.79215851 19.990209,4.11339122 C19.1179593,3.67766597 18.5837815,3.38386112 18.5837815,2.93803718 C18.5940095,2.53274268 19.0355893,2.11761878 20.0202113,2.11761878 C20.8309561,2.09728673 21.4266388,2.28970063 21.8779011,2.48224918 L22.1034641,2.58337083 L22.4426269,0.527006197 L22.4426269,0.527006197 L22.4426269,0.527006197 Z" id="path11"></path>
                            <path d="M25.7572027,6.44349795 C25.9625823,5.8964177 26.752871,3.77905692 26.752871,3.77905692 C26.7425065,3.79938897 26.9578415,3.22187797 27.0809874,2.86734628 L27.2552737,3.68789932 C27.2552737,3.68789932 27.7275376,5.9673779 27.8300911,6.44349795 C27.4403335,6.44349795 26.2497864,6.44349795 25.7572027,6.44349795 L25.7572027,6.44349795 Z M28.8355783,0.294197498 L26.9065647,0.294197498 C26.3117003,0.294197498 25.8597561,0.466279347 25.6030998,1.08431979 L21.8987664,9.81700237 L24.5155153,9.81700237 C24.5155153,9.81700237 24.9463215,8.64164833 25.0389196,8.38850758 C25.3259873,8.38850758 27.8715488,8.38850758 28.2408503,8.38850758 C28.3124467,8.72284188 28.5384189,9.81700237 28.5384189,9.81700237 L30.8475074,9.81700237 L28.8355783,0.294197498 L28.8355783,0.294197498 L28.8355783,0.294197498 Z" id="path13" fill-rule="nonzero"></path>
                            <path d="M8.82525023,0.294197498 L6.38292403,6.78793095 L6.11603965,5.47092581 C5.66450455,3.95127342 4.24839448,2.30020328 2.66808983,1.47924629 L4.9051728,9.80703832 L7.54237779,9.80703832 L11.4623188,0.294197498 L8.82525023,0.294197498 L8.82525023,0.294197498 L8.82525023,0.294197498 Z" id="path15"></path>
                            <path d="M4.11502047,0.294197498 L0.10261769,0.294197498 L0.0615690451,0.486611397 C3.19149415,1.27686834 5.26438254,3.18175247 6.11603965,5.47132975 L5.24379003,1.09468779 C5.10018796,0.486476747 4.65888093,0.314260249 4.11502047,0.294197498 L4.11502047,0.294197498 Z" id="path17"></path>
                        </g>
                    </g>
                </g>
            </g>
        </g>
    </g>
</svg>